D:\school\WTK\thesis\model\3dpredictsim\Results\Batchsim_tmt_linear_v2\Pog_s1_tmt_bCst_d02_k1000_ig24_pas_GRF.mot
nRows=25
nColumns=19

name D:\school\WTK\thesis\model\3dpredictsim\Results\Batchsim_tmt_linear_v2\Pog_s1_tmt_bCst_d02_k1000_ig24_pas_GRF.mot
datacolumns 19
datarows 25
range 0.5405820965 0.8000615029
endheader
time 	ground_force_vx	ground_force_vy	ground_force_vz	ground_force_px	ground_force_py	ground_force_pz	1_ground_force_vx	1_ground_force_vy	1_ground_force_vz	1_ground_force_px	1_ground_force_py	1_ground_force_pz	ground_torque_x	ground_torque_y	ground_torque_z	1_ground_torque_x	1_ground_torque_y	1_ground_torque_z
        0.5405820965	      109.9343291261	      461.9301795544	       -2.5394790812	        0.3244010323	        0.0000000000	        0.0470240013	      -80.6506301586	       61.5533357035	      -17.1490295437	        0.8342574028	        0.0000000000	       -0.0456687997	        0.0000000000	        0.0000000000	        0.0000000000	        0.0000000000	        0.0000000000	        0.0000000000	
        0.5513937385	       76.0613883215	      361.3967762461	        3.6000962957	        0.3390670209	        0.0000000000	        0.0446744223	     -141.6080460618	      142.2906952472	      -44.0407733002	        0.8424532761	        0.0000000000	       -0.0441419407	        0.0000000000	        0.0000000000	        0.0000000000	        0.0000000000	        0.0000000000	        0.0000000000	
        0.5622053804	       39.1246535825	      256.8121213831	        7.1014396066	        0.3626280306	        0.0000000000	        0.0403601209	      -62.8095777095	      296.6598743562	      -18.2266458857	        0.8491604473	        0.0000000000	       -0.0427357062	        0.0000000000	        0.0000000000	        0.0000000000	        0.0000000000	        0.0000000000	        0.0000000000	
        0.5730170223	       11.8291220891	      173.5749069143	        8.2716916163	        0.3937292522	        0.0000000000	        0.0330057267	      -61.4129064869	      486.4217309049	        0.5324181728	        0.8542730448	        0.0000000000	       -0.0434054003	        0.0000000000	        0.0000000000	        0.0000000000	        0.0000000000	        0.0000000000	        0.0000000000	
        0.5838286643	       -0.2766050174	      139.9707086946	       11.1665654126	        0.4030817528	        0.0000000000	        0.0300188169	     -102.5965192183	      730.3816352905	       11.8054383344	        0.8642342327	        0.0000000000	       -0.0463289728	        0.0000000000	        0.0000000000	        0.0000000000	        0.0000000000	        0.0000000000	        0.0000000000	
        0.5946403062	       -0.9938111116	      106.5536343061	       12.2985426691	        0.4036223633	        0.0000000000	        0.0301995085	     -129.4247990884	      893.7853343543	       17.9383226206	        0.8712276564	        0.0000000000	       -0.0482955081	        0.0000000000	        0.0000000000	        0.0000000000	        0.0000000000	        0.0000000000	        0.0000000000	
        0.6054519481	       -4.0297230562	       68.7980079408	       11.8000441228	        0.4040829433	        0.0000000000	        0.0303509494	     -133.0627560814	      939.3803569749	       19.5059768648	        0.8760288406	        0.0000000000	       -0.0495208642	        0.0000000000	        0.0000000000	        0.0000000000	        0.0000000000	        0.0000000000	        0.0000000000	
        0.6162635901	       -8.6207682989	       28.5173244149	        6.2823081202	        0.4037172072	        0.0000000000	        0.0301637353	     -124.0146806129	      910.9042662994	       19.0868389457	        0.8798167258	        0.0000000000	       -0.0503645978	        0.0000000000	        0.0000000000	        0.0000000000	        0.0000000000	        0.0000000000	        0.0000000000	
        0.6270752320	        0.1618121275	       -0.1620467816	       -0.0125409467	        0.0000000000	        0.0000000000	        0.0000000000	     -110.2327862990	      863.1510474206	       17.8078655688	        0.8835050726	        0.0000000000	       -0.0509977931	        0.0000000000	        0.0000000000	        0.0000000000	        0.0000000000	        0.0000000000	        0.0000000000	
        0.6378868739	        0.0004375472	       -0.0003605089	        0.0000050516	        0.0000000000	        0.0000000000	        0.0000000000	      -97.6090596166	      821.9206844950	       17.5162789276	        0.8879020104	        0.0000000000	       -0.0517207009	        0.0000000000	        0.0000000000	        0.0000000000	        0.0000000000	        0.0000000000	        0.0000000000	
        0.6486985159	        0.0001843704	       -0.0001322712	        0.0000056698	        0.0000000000	        0.0000000000	        0.0000000000	      -90.1907218717	      794.4309405701	       17.8289849006	        0.8938090230	        0.0000000000	       -0.0521233282	        0.0000000000	        0.0000000000	        0.0000000000	        0.0000000000	        0.0000000000	        0.0000000000	
        0.6595101578	        0.0013581715	       -0.0008732975	        0.0000528767	        0.0000000000	        0.0000000000	        0.0000000000	      -81.6537465549	      760.5499874890	       17.4700799996	        0.8998772640	        0.0000000000	       -0.0522471200	        0.0000000000	        0.0000000000	        0.0000000000	        0.0000000000	        0.0000000000	        0.0000000000	
        0.6703217997	        0.0082151016	       -0.0048404720	        0.0003536682	        0.0000000000	        0.0000000000	        0.0000000000	      -73.3338654247	      722.5827789949	       17.0598352638	        0.9057745526	        0.0000000000	       -0.0522703066	        0.0000000000	        0.0000000000	        0.0000000000	        0.0000000000	        0.0000000000	        0.0000000000	
        0.6811334416	       -0.0572434518	        0.0314177560	       -0.0026049872	        0.0000000000	        0.0000000000	        0.0000000000	      -65.4071456639	      689.1440193948	       16.7587909219	        0.9115930476	        0.0000000000	       -0.0521923218	        0.0000000000	        0.0000000000	        0.0000000000	        0.0000000000	        0.0000000000	        0.0000000000	
        0.6919450836	       -0.0404077203	        0.0208819901	       -0.0019141758	        0.0000000000	        0.0000000000	        0.0000000000	      -57.8948983289	      662.4209103823	       16.8382967087	        0.9171953905	        0.0000000000	       -0.0521085123	        0.0000000000	        0.0000000000	        0.0000000000	        0.0000000000	        0.0000000000	        0.0000000000	
        0.7027567255	       -0.0281400490	        0.0138080292	       -0.0013719405	        0.0000000000	        0.0000000000	        0.0000000000	      -51.0394629050	      641.7366880629	       17.2253747922	        0.9224968708	        0.0000000000	       -0.0520132157	        0.0000000000	        0.0000000000	        0.0000000000	        0.0000000000	        0.0000000000	        0.0000000000	
        0.7135683674	       -0.0242782941	        0.0113828290	       -0.0012088310	        0.0000000000	        0.0000000000	        0.0000000000	      -44.6859584937	      626.0348275113	       17.5271764812	        0.9275066461	        0.0000000000	       -0.0519016584	        0.0000000000	        0.0000000000	        0.0000000000	        0.0000000000	        0.0000000000	        0.0000000000	
        0.7243800094	       -0.0269596218	        0.0121413754	       -0.0013637367	        0.0000000000	        0.0000000000	        0.0000000000	      -40.0990938151	      614.9252894583	       18.0945847868	        0.9322054942	        0.0000000000	       -0.0517611501	        0.0000000000	        0.0000000000	        0.0000000000	        0.0000000000	        0.0000000000	        0.0000000000	
        0.7351916513	       -0.0373852869	        0.0162541197	       -0.0019242061	        0.0000000000	        0.0000000000	        0.0000000000	      -36.2007529671	      607.4419347709	       18.8966884208	        0.9365960199	        0.0000000000	       -0.0515908180	        0.0000000000	        0.0000000000	        0.0000000000	        0.0000000000	        0.0000000000	        0.0000000000	
        0.7460032932	       -0.0611218973	        0.0257741394	       -0.0032107323	        0.0000000000	        0.0000000000	        0.0000000000	      -32.5379180468	      601.6910386315	       19.8720742248	        0.9406956682	        0.0000000000	       -0.0513975885	        0.0000000000	        0.0000000000	        0.0000000000	        0.0000000000	        0.0000000000	        0.0000000000	
        0.7568149352	       -0.1101944896	        0.0452544125	       -0.0059002802	        0.0000000000	        0.0000000000	        0.0000000000	      -29.0160035508	      596.2773256050	       20.4069160994	        0.9444733640	        0.0000000000	       -0.0512055878	        0.0000000000	        0.0000000000	        0.0000000000	        0.0000000000	        0.0000000000	        0.0000000000	
        0.7676265771	       -0.2050242968	        0.0823085771	       -0.0111140641	        0.0000000000	        0.0000000000	        0.0000000000	      -25.5743232262	      590.6831099123	       20.5971663595	        0.9479456428	        0.0000000000	       -0.0510233957	        0.0000000000	        0.0000000000	        0.0000000000	        0.0000000000	        0.0000000000	        0.0000000000	
        0.7784382190	       -0.3715771687	        0.1463473926	       -0.0202966897	        0.0000000000	        0.0000000000	        0.0000000000	      -22.1465014319	      584.2285837036	       20.6687998331	        0.9511156425	        0.0000000000	       -0.0508478058	        0.0000000000	        0.0000000000	        0.0000000000	        0.0000000000	        0.0000000000	        0.0000000000	
        0.7892498610	       -0.6334116946	        0.2454260177	       -0.0347226854	        0.0000000000	        0.0000000000	        0.0000000000	      -18.5149781217	      576.8715255646	       20.5292285001	        0.9540180664	        0.0000000000	       -0.0506836098	        0.0000000000	        0.0000000000	        0.0000000000	        0.0000000000	        0.0000000000	        0.0000000000	
        0.8000615029	       -1.0043243590	        0.3835807687	       -0.0550876109	        0.0000000000	        0.0000000000	        0.0000000000	      -14.7591691390	      568.8815932269	       20.2999688354	        0.9566584883	        0.0000000000	       -0.0505238385	        0.0000000000	        0.0000000000	        0.0000000000	        0.0000000000	        0.0000000000	        0.0000000000	
